<?xml version="1.0" encoding="UTF-8" standalone="no"?>
<!-- Created with Inkscape (http://www.inkscape.org/) -->

<svg
   version="1.1"
   id="svg1"
   width="1310.3096"
   height="2113.1519"
   viewBox="0 0 1310.3096 2113.1519"
   sodipodi:docname="78a.svg"
   inkscape:version="1.3.2 (091e20ef0f, 2023-11-25)"
   xmlns:inkscape="http://www.inkscape.org/namespaces/inkscape"
   xmlns:sodipodi="http://sodipodi.sourceforge.net/DTD/sodipodi-0.dtd"
   xmlns="http://www.w3.org/2000/svg"
   xmlns:svg="http://www.w3.org/2000/svg">
  <defs
     id="defs1" />
  <sodipodi:namedview
     id="namedview1"
     pagecolor="#ffffff"
     bordercolor="#000000"
     borderopacity="0.25"
     inkscape:showpageshadow="2"
     inkscape:pageopacity="0.0"
     inkscape:pagecheckerboard="0"
     inkscape:deskcolor="#d1d1d1"
     showgrid="false"
     inkscape:zoom="0.33541667"
     inkscape:cx="667.82609"
     inkscape:cy="1041.9876"
     inkscape:window-width="1920"
     inkscape:window-height="1011"
     inkscape:window-x="0"
     inkscape:window-y="0"
     inkscape:window-maximized="1"
     inkscape:current-layer="layer1" />
  <g
     inkscape:groupmode="layer"
     id="layer1"
     inkscape:label="Layer 1"
     transform="translate(-96.379887,-159.24926)">
    <path
       style="fill:#000000"
       d="m 732,2272.2727 c -53.12918,-2.1953 -101.43477,-33.3516 -125.25603,-80.7879 -10.40703,-20.724 -14.6708,-37.6981 -15.44815,-61.4992 -0.61255,-18.7553 0.92355,-31.7413 5.62538,-47.5562 l 2.74476,-9.2322 -6.58298,-0.6699 c -35.07258,-3.5691 -70.04918,-21.0413 -93.45193,-46.6831 -23.5681,-25.8229 -36.363,-56.1473 -39.17419,-92.8442 -1.17734,-15.3688 2.74012,-41.9698 8.35821,-56.7554 l 1.93469,-5.0917 -6.12488,-2.643 c -23.08252,-9.9605 -47.37178,-30.3778 -61.81703,-51.9627 -11.4897,-17.1685 -18.61851,-34.149 -22.90019,-54.5472 -2.9048,-13.8386 -3.17775,-39.7644 -0.56853,-54 2.03007,-11.0758 8.20939,-30.1817 12.5293,-38.7394 l 3.01546,-5.9736 -9.43548,-0.6632 c -38.20775,-2.6857 -71.45747,-18.1772 -97.70237,-45.5206 -19.19273,-19.9961 -31.78301,-43.612 -37.90703,-71.1032 -2.02405,-9.0861 -2.33901,-13.1931 -2.33901,-30.5 0,-15.5165 0.40629,-21.9055 1.81237,-28.5 2.51358,-11.7886 7.81884,-27.3165 12.5436,-36.7135 l 3.97753,-7.911 -16.70301,0.4346 c -28.91518,0.7523 -48.18853,-3.3708 -72.53756,-15.5177 -39.84891,-19.8793 -68.4282,-57.2535 -78.220958,-102.2924 -2.625487,-12.0752 -2.664126,-45.8261 -0.06626,-57.8747 10.780408,-49.9986 44.245188,-90.1146 90.554688,-108.5526 4.75178,-1.892 9.91826,-3.7539 11.48107,-4.1377 3.25524,-0.7993 3.32422,0.015 -1.24564,-14.7074 -8.52966,-27.4797 -7.98564,-61.3506 1.43621,-89.4178 11.40691,-33.9806 37.27483,-64.83595 68.87095,-82.14954 33.51676,-18.36604 75.08727,-23.06744 111.26521,-12.58348 30.83814,8.93654 58.79016,27.99142 77.26751,52.67322 2.36752,3.1625 4.46986,5.75 4.67186,5.75 0.20201,0 1.99709,-3.2625 3.98907,-7.25 11.39879,-22.81782 32.75727,-45.75092 54.90336,-58.95101 19.83937,-11.82518 42.12745,-19.06762 63.43832,-20.61408 l 9.43832,-0.68491 6.06168,-12.00647 c 7.24723,-14.35471 14.07511,-24.4201 23.51493,-34.66476 l 6.99066,-7.58668 -13.72916,-18.87104 C 593.64761,820.97746 573.96427,796.09323 514.17492,723.10521 475.44028,675.8198 468.47625,667.1034 469.10877,666.69898 c 0.21518,-0.13758 3.99123,-1.74072 8.39123,-3.56255 4.4,-1.82182 11.69036,-4.86267 16.20079,-6.75745 4.93174,-2.07175 10.71252,-3.67959 14.50174,-4.03343 11.83257,-1.10494 26.09966,4.37358 41.99154,16.12462 l 8.43059,6.2339 14.74829,28.25596 c 26.16361,50.12634 47.08388,87.32925 71.76677,127.62418 l 12.91526,21.08421 9.75903,-4.76962 c 11.29596,-5.52076 21.48075,-9.1022 33.16261,-11.66147 l 8.27096,-1.81201 -7.37379,-5.90403 C 609.09797,753.23785 560.02063,653.24434 560.02063,538.5 c 0,-52.77805 9.52272,-102.21656 30.66541,-159.20374 l 7.49575,-20.20375 13.29765,12.2616 c 9.30112,8.57645 15.24642,13.22097 19.78182,15.45374 8.30646,4.08926 9.17642,4.0832 8.3042,-0.0578 -3.16141,-15.00952 -3.89956,-21.55927 -3.85992,-34.25 0.0808,-25.85932 5.92996,-44.3071 21.92603,-69.15265 l 5.86843,-9.11502 10.3112,9.27669 c 14.47737,13.02486 26.599,18.43779 41.3753,18.4762 l 5.68651,0.0148 5.65686,-8.50174 C 733.57754,282.90627 738.3884,271.71624 742.00638,257.5 746.69805,239.06488 747.5,229.6128 747.5,192.75019 c 0,-18.5624 0.32064,-33.6374 0.71254,-33.5 0.3919,0.1374 8.92661,6.32481 18.96603,13.74981 36.27412,26.82779 53.96568,48.42316 63.85749,77.94824 8.77041,26.17793 9.46231,64.17759 1.90122,104.41631 -1.12283,5.9755 -1.83046,11.0756 -1.57251,11.33356 0.73509,0.73508 8.59005,-3.00339 18.04763,-8.58956 4.75693,-2.8097 8.99894,-5.10855 9.42669,-5.10855 1.15109,0 8.99093,22.40534 10.67224,30.5 0.79967,3.85 1.4679,9.25 1.48496,12 0.0651,10.49887 0.88616,10.40186 5.97902,-0.70648 C 905.36766,332.86531 936.83445,290.31281 979.5,256.14948 l 14,-11.21014 0.67588,4.28033 c 0.37173,2.35418 0.74258,7.43033 0.82412,11.28033 0.0815,3.85 0.45239,8.93376 0.82412,11.29724 l 0.67588,4.29724 8,-7.19681 c 26.5493,-23.88383 54.7822,-43.07201 85.9569,-58.41969 C 1102.041,204.775 1149.9428,184 1151.5083,184 c 0.1604,0 -2.0882,7.3125 -4.9968,16.25 -6.448,19.81321 -7.0446,22.18538 -5.2982,21.06498 0.7077,-0.454 7.5419,-4.98226 15.1871,-10.06281 15.9168,-10.57724 39.2928,-22.4586 54.5996,-27.75141 C 1231.3169,176.47558 1255.0169,172 1271.9012,172 h 7.7989 l 5.0754,5.83535 c 17.1909,19.76483 27.9078,41.07876 33.425,66.47624 3.1996,14.72865 3.1777,47.34134 -0.044,66.18841 -2.7295,15.96602 -8.3537,39.36406 -15.0783,62.72952 -2.7928,9.70401 -5.0778,18.13076 -5.0778,18.72611 0,3.01989 17.7477,-4.32529 30.1292,-12.46946 14.9788,-9.85263 29.077,-18.61369 29.4111,-18.27702 0.8533,0.85999 7.4856,23.15845 8.3948,28.22451 2.8142,15.68059 0.3487,32.63091 -6.8095,46.81634 -2.1509,4.2625 -3.6973,7.75 -3.4364,7.75 0.2608,0 3.1937,-1.5938 6.5174,-3.54179 3.3237,-1.94798 6.2204,-3.36451 6.4371,-3.14785 0.2167,0.21667 1.8198,5.97297 3.5625,12.79179 2.8864,11.29379 3.1742,13.82269 3.2312,28.39785 0.072,18.44806 -0.969,23.38699 -8.0112,38 -5.4024,11.21062 -12.0961,20.10027 -22.5154,29.90198 -4.8911,4.60115 -7.4116,7.59802 -6.3903,7.59802 0.9276,0 10.0008,-2.73913 20.1627,-6.08695 10.1619,-3.34783 18.679,-5.88423 18.9267,-5.63646 0.7609,0.76086 -13.4541,39.29766 -18.7587,50.85506 -12.3337,26.87157 -26.687,48.6342 -45.1735,68.49261 -6.5493,7.03531 -23.004,21.19806 -31.0405,26.71689 -4.0152,2.75739 -4.0488,2.8256 -1.1372,2.31361 1.65,-0.29014 9.8526,-1.76611 18.2279,-3.27992 8.3753,-1.51381 15.4303,-2.55 15.6776,-2.30265 1.1936,1.19359 3.6683,24.73761 3.6712,34.92781 0,11.7098 -1.4886,20.0283 -4.7093,26.25648 -0.9127,1.76489 -1.2066,3.29713 -0.6669,3.47701 4.0935,1.36452 32.4817,15.98552 39.2995,20.24078 23.0079,14.36014 39.1934,30.85777 46.4548,47.35075 2.3364,5.30676 7.9551,27.59846 7.1573,28.39624 -0.2443,0.24427 -5.2851,-0.0431 -11.2018,-0.63857 -14.5284,-1.4622 -29.7409,-1.33248 -42.4689,0.36214 -11.1504,1.48458 -33.9547,6.51565 -33.9222,7.48391 0.011,0.31419 2.8963,2.25347 6.4128,4.3095 11.3635,6.64395 25.7558,18.07694 41.9406,33.31684 l 15.8249,14.90101 -23.4071,4.63102 c -46.0099,9.10294 -80.4062,20.99861 -142.7869,49.38166 -12.923,5.87996 -23.6239,10.81833 -23.7798,10.97416 -0.1558,0.15583 2.762,2.25742 6.4841,4.6702 35.1724,22.80015 59.1742,59.52587 65.8694,100.78807 2.0153,12.4203 1.9614,35.4207 -0.1121,47.8729 -2.8039,16.8376 -11.3857,39.6353 -20.1412,53.5049 -1.3576,2.1505 -2.3233,4.0544 -2.1461,4.231 0.1772,0.1765 4.0819,1.2807 8.6771,2.4536 53.8339,13.741 95.1493,57.1361 107.6372,113.0555 2.2266,9.9703 3.1438,39.1207 1.5786,50.167 -6.7614,47.7168 -36.5431,89.4742 -79.3125,111.2056 -8.2245,4.1789 -21.3557,9.105 -32.4719,12.1818 -0.827,0.2288 -0.1412,2.6895 2.1516,7.7209 4.5962,10.0857 9.2317,24.9009 11.2582,35.982 2.3304,12.7429 2.31,39.0544 -0.04,51.2236 -9.2093,47.6951 -40.1091,87.9844 -82.7307,107.87 -18.3629,8.5674 -34.2524,12.4753 -54.1757,13.324 -7.5625,0.3222 -13.75,0.6905 -13.75,0.8187 0,0.1281 1.5265,4.9026 3.3922,10.6101 5.1496,15.7534 6.9823,27.8528 6.949,45.8772 -0.034,18.4142 -1.7955,29.5154 -7.3171,46.1123 -13.8935,41.7613 -45.3195,75.0007 -86.0241,90.9881 -4.675,1.8362 -8.577,3.3542 -8.671,3.3734 -0.094,0.019 0.6876,3.6329 1.7371,8.0305 7.6724,32.1508 3.2165,69.1001 -11.9774,99.3193 -15.28993,30.4102 -42.07913,55.7799 -73.11487,69.2409 -16.53893,7.1733 -37.5744,11.9231 -52.84046,11.9315 -6.53969,0 -7.31019,0.2004 -6.86386,1.754 0.27652,0.9625 1.6824,5.7495 3.12417,10.6379 9.68837,32.8485 6.1876,71.3251 -9.48802,104.2818 -11.92912,25.0799 -36.02643,50.5218 -60.68609,64.0722 -24.29028,13.3474 -50.92955,19.6585 -78.21957,18.5308 z m 30.33427,-27.7582 c 44.33493,-9.2257 80.5916,-42.5915 93.02647,-85.6092 7.43454,-25.7194 5.94533,-54.697 -4.10974,-79.9689 -3.3821,-8.5004 -3.3522,-8.4788 -17.751,-12.8334 -29.64467,-8.9653 -55.95315,-28.0915 -75.47141,-54.8674 -3.29963,-4.5266 -6.22864,-7.4987 -7.77162,-7.886 -5.12142,-1.2853 -29.59292,0.3762 -39.20089,2.6616 -70.89671,16.8644 -111.79237,90.7422 -87.90636,158.8025 15.24108,43.4277 53.71304,74.8368 99.35028,81.1112 9.52817,1.31 30.29465,0.5747 39.83427,-1.4104 z M 619.5707,2037.3733 c 21.94645,-29.507 54.98625,-50.557 89.67235,-57.1311 l 8.74306,-1.6571 2.92657,-7.0426 c 10.17918,-24.4952 11.66071,-54.0844 4.00776,-80.0435 l -2.06395,-7.001 -10.17824,-1.6682 c -41.78624,-6.8488 -79.67484,-33.2052 -102.22094,-71.1078 l -4.76094,-8.0037 -9.09819,0.6113 c -17.05513,1.1459 -37.49184,8.0014 -53.35287,17.8972 -10.36179,6.4648 -25.67493,20.6824 -33.23643,30.8586 -14.72945,19.8228 -22.64699,42.5217 -23.68913,67.9146 -1.5594,37.9964 14.31175,73.8917 43.302,97.9348 21.96705,18.2185 48.39276,28.0886 77.46166,28.9322 l 4.58342,0.133 z m 281.51628,8.0507 c 43.44062,-8.2405 79.40213,-40.0996 93.29166,-82.649 6.41896,-19.6638 7.37006,-46.447 2.33569,-65.775 -8.23568,-31.6189 -25.61042,-56.1654 -52.187,-73.7281 -29.66302,-19.6024 -69.47066,-24.801 -104.02733,-13.5854 -42.62096,13.833 -73.74088,49.7934 -82.60759,95.4567 -1.83736,9.4623 -1.58768,32.6423 0.46459,43.1317 1.88658,9.6426 6.47537,23.4473 10.37945,31.2251 8.93501,17.8005 26.4051,37.4715 42.66214,48.0367 26.73805,17.3766 58.73766,23.7586 89.68839,17.8873 z M 744.46448,1859 c 1.44861,0 2.64324,-0.9511 3.45419,-2.75 3.22235,-7.1481 15.42762,-23.7114 23.97688,-32.5381 20.50607,-21.1715 42.89528,-34.208 70.98909,-41.3345 5.21115,-1.322 9.63496,-2.5637 9.83068,-2.7594 0.19573,-0.1957 1.76153,-5.7023 3.47956,-12.2369 2.94253,-11.192 3.1237,-12.9251 3.1237,-29.8811 0,-16.9825 -0.17783,-18.6766 -3.14601,-29.9694 -9.34277,-35.5459 -34.73483,-66.052 -67.35071,-80.9156 -32.89174,-14.9892 -73.3058,-14.4368 -104.89245,1.4337 -15.72179,7.8994 -33.53227,22.9078 -44.44332,37.4513 -9.38927,12.5151 -18.22651,32.9721 -21.59949,50 -1.80192,9.0967 -1.79427,34.7889 0.0131,44 9.18724,46.8221 44.37606,84.4764 89.80635,96.0984 9.92726,2.5396 26.41621,4.5159 31.66896,3.7958 1.58125,-0.2168 3.87152,-0.3942 5.08948,-0.3942 z m 282.10342,-4.8939 c 23.5351,-11.2425 41.0729,-27.2619 54.1002,-49.4164 17.0529,-29.0004 21.0202,-66.9467 10.334,-98.8429 -14.4578,-43.1535 -51.0059,-74.6967 -95.38309,-82.321 -4.88454,-0.8392 -11.30916,-1.5258 -14.27692,-1.5258 -5.02219,0 -5.93084,0.4023 -13.11901,5.8086 -10.59037,7.965 -16.14658,11.3412 -27.23009,16.5458 -15.25332,7.1627 -30.52868,11.5449 -45.99299,13.1945 -7.52007,0.8022 -9.32683,2.1374 -17.16023,12.6816 l -5.00018,6.7305 2.99199,7.7695 c 7.67259,19.9239 10.97947,43.1357 9.13683,64.1337 -0.88522,10.0876 -3.1803,23.9185 -4.56992,27.5397 -0.37679,0.9819 1.75506,1.4717 8.68216,1.9946 26.83259,2.0256 53.16223,11.5848 75.16659,27.2898 16.29489,11.63 33.54772,30.8877 42.45986,47.3941 3.5935,6.6554 3.9474,6.995 6.7307,6.4587 1.6157,-0.3114 7.5243,-2.7572 13.1301,-5.435 z m -541.07258,-10.8579 c 5.40952,-8.5752 17.22512,-21.9133 25.68979,-28.9999 23.49895,-19.6734 46.86738,-30.4005 75.34079,-34.5845 6.60543,-0.9706 8.94049,-1.6941 8.84676,-2.7412 -0.07,-0.7824 -0.88478,-5.0226 -1.81053,-9.4226 -7.49767,-35.6356 -1.05702,-74.3434 17.50459,-105.2014 2.7133,-4.5108 4.93328,-8.5994 4.93328,-9.0859 0,-1.3846 -12.83555,-13.3919 -19.69717,-18.4262 -13.86034,-10.1691 -33.26369,-18.2122 -51.66714,-21.417 -13.6204,-2.3719 -36.92834,-1.45 -49.63569,1.9632 -75.0986,20.1716 -112.90031,100.2474 -80.46487,170.4497 7.99364,17.3012 23.61357,35.9632 39.46487,47.1509 6.30704,4.4514 25.98189,15.0708 27.91135,15.0649 0.32376,-10e-4 1.93654,-2.1385 3.58397,-4.75 z m 654.83218,-183.7435 c 32.8835,-6.7956 60.2075,-24.9619 78.1859,-51.9816 28.6113,-43.0003 27.2316,-99.4483 -3.4364,-140.5859 -2.2294,-2.9904 -7.7712,-9.1891 -12.3152,-13.7746 -39.834,-40.1988 -103.5729,-46.7833 -151.8141,-15.6829 -8.9008,5.7382 -19.6329,15.1181 -26.3308,23.0132 -4.8471,5.7135 -5.4343,6.8571 -4.6206,8.9974 0.5127,1.3486 1.9403,7.5275 3.1724,13.7308 1.777,8.9469 2.2386,14.6905 2.2328,27.7789 -0.011,24.9132 -3.7999,41.5737 -14.5862,64.1396 l -6.0416,12.6396 3.3631,6.2767 3.3632,6.2767 10,3.3041 c 25.6804,8.485 49.893,24.8511 66.4032,44.8841 3.8595,4.6831 7.4258,9.2447 7.9252,10.137 1.9581,3.4991 29.1601,4.0167 44.4991,0.8469 z m -719.42618,-30.7882 c 17.43114,-16.6536 38.2455,-29.1771 59.51892,-35.8111 l 10.92024,-3.4054 4.78675,-7.3124 c 2.63272,-4.0219 6.0098,-9.8123 7.50463,-12.8676 2.44362,-4.9946 2.58983,-5.8712 1.44903,-8.6876 -8.67719,-21.4216 -11.92953,-35.4945 -12.76617,-55.2391 -0.67768,-15.993 0.58731,-28.7755 4.29433,-43.3933 l 2.40915,-9.5 -3.76802,-5.5 c -3.23148,-4.7168 -4.26512,-5.5364 -7.2591,-5.7555 -16.05476,-1.1749 -37.41435,-7.3246 -53.27097,-15.3374 -15.15563,-7.6585 -23.70864,-13.7614 -36.43383,-25.997 l -7.21371,-6.9361 -5.78629,0.5906 c -11.34896,1.1585 -22.63042,3.5876 -31.64017,6.8129 -7.34913,2.6307 -10.84912,4.6418 -17.81397,10.2359 -4.76733,3.8291 -12.79361,9.4041 -17.83619,12.389 -16.99454,10.0596 -30.26729,27.9034 -38.84477,52.2227 -4.85462,13.7641 -6.53069,24.3099 -6.48044,40.7749 0.0471,15.4309 1.45257,24.4133 5.91392,37.7963 12.03035,36.0881 40.93985,65.039 77.01242,77.1226 14.54074,4.8708 22.8971,6.0449 41.06013,5.7691 l 16.15721,-0.2453 z M 904,1630.092 c 56.46039,-12.7616 95.97341,-61.6485 95.99598,-118.7696 0.008,-19.5774 -3.57838,-35.4131 -12.04399,-53.1842 -6.00796,-12.6121 -11.92185,-21.131 -21.88839,-31.5301 -18.45047,-19.2513 -42.35972,-31.8585 -68.60643,-36.1758 -12.99725,-2.1379 -34.26542,-1.4345 -46.45717,1.5366 -47.65659,11.6136 -82.224,47.2898 -92.56203,95.5311 -2.37235,11.0703 -2.43252,34.0719 -0.11956,45.7098 4.63006,23.2967 14.18572,42.1791 30.94689,61.1524 4.46734,5.057 7.56881,7.3436 15.88382,11.7109 5.68289,2.9848 14.2983,8.2724 19.14536,11.7503 4.84705,3.4779 10.26756,6.9313 12.04557,7.6742 4.79543,2.0037 18.47375,5.3534 26.29472,6.4395 9.91941,1.3774 31.33405,0.4222 41.36523,-1.8451 z m -248.94758,-14.6277 c 16.18056,-11.0177 36.96608,-19.5991 55.83263,-23.0508 l 9.07652,-1.6606 7.92358,-8.2534 c 4.35797,-4.5393 9.10963,-10.0456 10.55925,-12.2361 l 2.63567,-3.9828 -2.61872,-7.801 c -4.91662,-14.6464 -6.54588,-24.1009 -7.14797,-41.4796 -0.86747,-25.0386 2.22415,-42.6408 11.24572,-64.0279 2.44249,-5.7903 4.4409,-10.9225 4.4409,-11.4049 0,-2.5419 -13.89995,-21.1576 -21.14849,-28.3234 -11.0352,-10.9094 -18.17408,-16.1503 -30.85151,-22.6493 -17.98824,-9.2216 -36.26801,-13.6384 -56,-13.531 -15.14162,0.082 -16.10503,0.4334 -21.78644,7.9365 -6.97833,9.2158 -23.29747,24.5105 -33.24582,31.1588 -11.85952,7.9256 -25.2348,14.3915 -38.83648,18.7744 l -11.63126,3.748 -2.72282,4.9094 c -13.75068,24.7933 -16.84634,62.1012 -7.6468,92.157 4.95988,16.2044 16.09746,34.8344 28.1714,47.1227 6.03917,6.1464 7.40132,7.0219 13.45872,8.6498 15.41755,4.1433 32.01534,12.1544 45.95714,22.1814 8.63569,6.2108 11.37423,6.9248 27.49373,7.1674 l 8.71136,0.1311 z m 604.23538,-175.0472 c 67.014,-26.5777 96.8487,-104.9301 64.2624,-168.7673 -27.281,-53.444 -89.5287,-79.2835 -146.3017,-60.731 -30.7062,10.0343 -56.9642,32.7224 -71.6708,61.9268 -8.7601,17.3956 -12.0992,32.7197 -12.018,55.1544 0.05,13.7121 0.4511,18.1052 2.3765,26 2.7083,11.1046 6.7623,21.794 11.8517,31.25 l 3.633,6.75 7.0395,0.02 c 3.8718,0.011 11.9,0.6665 17.8406,1.4571 34.0063,4.5262 62.7617,19.0505 87.1674,44.0281 l 9.9684,10.202 8.3194,-1.8181 c 4.5756,-0.9999 12.4648,-3.4621 17.5316,-5.4715 z m -992.53606,-24.9849 c 39.87087,-8.1537 72.43336,-34.5033 88.39689,-71.5311 l 3.88036,-9.0005 -1.42866,-5.7003 c -5.25375,-20.9623 -5.54897,-42.1461 -0.92359,-66.2746 l 1.65123,-8.6137 -5.51041,-11.406 C 332.23904,1200.3104 290.30732,1174 243,1174 c -46.25581,0 -88.4441,26.1319 -108.9209,67.4667 -8.86866,17.9024 -12.47227,33.6769 -12.45789,54.5333 0.011,15.8897 1.48238,25.0145 6.36122,39.448 14.02018,41.4772 52.75712,74.2751 95.01757,80.4499 4.125,0.6027 8.625,1.2926 10,1.5332 4.77812,0.8359 26.0497,-0.4239 33.75174,-1.9989 z m 745.06146,-1.0245 c 11.2383,-2.8051 22.769,-7.6716 33.3897,-14.092 8.544,-5.1651 22.4457,-16.6983 26.8986,-22.3157 l 2.7744,-3.5 -2.8904,-11.1375 c -9.6201,-37.0695 -4.1074,-76.826 15.303,-110.3625 l 4.9196,-8.5 -3.2369,-6 c -9.1256,-16.9156 -26.3896,-35.4136 -42.3167,-45.3418 -61.7732,-38.5061 -141.62498,-15.9109 -174.40287,49.3497 C 864.06218,1258.8131 860,1276.7149 860,1296.5 c 0,20.9087 4.55317,39.5779 13.91476,57.0542 l 4.79204,8.9458 7.3966,0.7475 c 21.847,2.208 39.05214,6.6055 55.40557,14.1613 15.42434,7.1265 35.56591,22.1238 46.32395,34.4926 l 5.26006,6.0476 4.70351,-0.6084 c 2.58691,-0.3346 8.89441,-1.6544 14.01671,-2.9329 z m -490.73942,0.01 c 49.89996,-8.394 88.85828,-46.1896 99.62228,-96.6489 2.61148,-12.242 2.36523,-37.1092 -0.49066,-49.5488 -10.94417,-47.6702 -48.4835,-84.4799 -95.7054,-93.8451 -10.78671,-2.1392 -35.86023,-2.4133 -45,-0.4918 -23.35136,4.9091 -41.18232,13.5553 -58.5,28.3664 -43.58249,37.2745 -54.66676,102.0364 -26.03024,152.0866 18.21905,31.8427 50.07273,54.1368 86.00439,60.1937 10.68587,1.8012 29.03045,1.75 40.09963,-0.1121 z m 238.93038,-17.8588 c 18.14277,-2.7351 33.62218,-8.7835 49.49584,-19.3402 10.08202,-6.705 24.51864,-20.2204 29.80247,-27.9007 l 2.80246,-4.0735 -2.51492,-8.8706 c -4.21131,-14.8539 -5.09223,-21.8959 -5.05015,-40.3705 0.0555,-24.377 3.22373,-39.2871 13.10081,-61.6549 l 4.48416,-10.1548 -2.97178,-5.8452 c -13.97574,-27.4885 -42.62488,-50.5421 -74.15976,-59.6755 -53.60689,-15.526 -113.32319,9.3551 -139.82562,58.2592 l -4.02587,7.4288 2.02528,3.9699 c 3.84428,7.5354 8.89504,21.7702 11.3732,32.0536 5.82004,24.1508 4.73773,55.965 -2.6327,77.3875 l -1.92583,5.5976 2.62935,3.7941 c 2.8218,4.0719 2.24845,3.8823 17.54237,5.8017 29.17531,3.6617 58.22724,17.6221 80.84653,38.8494 3.575,3.355 7.175,6.1173 8,6.1384 0.825,0.021 5.77687,-0.6063 11.00416,-1.3943 z M 1117.9165,1215.75 c 21.6373,-19.9857 54.038,-33.4585 87.1823,-36.2519 l 7.5987,-0.6404 3.5614,-4.6788 c 28.3949,-37.3042 33.4976,-86.319 13.2975,-127.7307 -8.9385,-18.3247 -21.3522,-33.2523 -37.9625,-45.6502 -7.8493,-5.85867 -26.5594,-15.798 -29.7387,-15.798 -0.9124,0 -7.8905,2.42268 -15.507,5.38373 -37.8167,14.70197 -66.3665,21.30117 -96.635,22.33707 l -16.7868,0.5745 -5.126,6.1023 c -6.914,8.231 -15.1471,20.96 -18.7479,28.9854 -13.63919,30.3992 -14.67469,64.2689 -2.8998,94.8458 2.8865,7.4956 3.1027,7.7605 7.1618,8.7767 19.0407,4.767 36.2106,12.1378 50.1855,21.5439 15.5258,10.4501 30.8758,25.7645 40.2808,40.1877 3.055,4.6849 5.3774,7.2416 6.5855,7.25 1.0265,0.01 4.4241,-2.3496 7.5502,-5.2371 z m -744.19001,-0.8045 c 2.04071,-0.7114 5.16113,-3.9151 9.59043,-9.8465 13.26683,-17.766 33.26846,-34.0573 54.22304,-44.1646 l 10.16805,-4.9045 3.53851,-7.7649 c 12.60664,-27.6642 14.35739,-60.7586 4.7338,-89.4831 -14.11128,-42.1194 -49.62331,-72.79311 -94.05424,-81.23993 -10.94537,-2.08084 -31.77082,-2.09389 -42.92608,-0.0269 -70.21411,13.01015 -114.39128,82.02823 -96.52327,150.79843 1.3478,5.1874 3.47941,11.747 4.73691,14.577 l 2.28636,5.1455 16,0.3606 c 23.91175,0.5389 41.96844,4.7849 62,14.579 23.17791,11.3325 44.26991,29.3872 56.9796,48.7744 2.92181,4.4569 4.28103,4.9266 9.24689,3.1955 z m 505.68265,-24.7412 c 20.44232,-19.8444 45.89241,-33.1898 73.90224,-38.7525 8.56936,-1.7018 8.67875,-1.7616 11.59755,-6.3349 1.62063,-2.5393 4.52014,-7.7669 6.44337,-11.6169 3.40498,-6.8162 3.4683,-7.1575 2.41206,-13 -0.59659,-3.3 -1.09278,-12.75 -1.10265,-21 -0.0196,-16.3988 1.80989,-29.4734 5.97788,-42.7212 l 2.42922,-7.7212 -2.59158,-7.7788 c -4.90085,-14.7102 -12.55574,-28.5697 -22.47723,-40.6959 -3.2744,-4.00208 -6.13413,-6.24838 -10.5,-8.24775 -17.04339,-7.80508 -38.67007,-19.78802 -53.58014,-29.68774 -6.99857,-4.64679 -16.88516,-6.14417 -35.41986,-5.36454 -53.32816,2.24315 -98.8972,39.46551 -112.11748,91.58143 -5.99995,23.6525 -4.59463,50.4093 3.80183,72.3857 2.85415,7.4703 3.07837,7.75 6.21212,7.75 6.28985,0 22.22022,3.2331 33.01775,6.701 29.74919,9.5547 58.05283,30.5959 75.28935,55.9708 3.11141,4.5805 5.87257,8.3282 6.13591,8.3282 0.26334,0 5.01969,-4.4081 10.56966,-9.7957 z m -255.43206,-3.1742 c 8.16966,-10.7321 21.21552,-23.4627 31.80831,-31.0395 10.41296,-7.4483 29.45836,-17.0666 40.7886,-20.5992 l 8.1865,-2.5524 3.11977,-6.3985 c 1.71587,-3.5192 4.26209,-9.8014 5.65827,-13.9605 2.43803,-7.2628 2.51119,-8.174 1.84873,-23.0238 -0.44786,-10.039 -0.24991,-20.1076 0.56443,-28.7089 l 1.25421,-13.2473 -3.20124,-10 C 693.29588,972.81022 624.60623,937.40763 560,958.12613 c -36.41096,11.67658 -67.10164,42.70857 -78.61073,79.48487 l -2.53833,8.1111 2.60712,8.5474 c 1.43392,4.7011 3.2673,11.8511 4.07419,15.8889 2.1368,10.6931 2.92473,32.6476 1.56596,43.6333 l -1.14925,9.2918 4.51552,8.7082 c 7.59882,14.6545 7.26484,14.4066 20.62278,15.3081 20.54601,1.3868 37.39445,5.9843 56.41274,15.3938 11.94214,5.9086 28.67943,17.9336 37.46584,26.9176 4.70821,4.8141 5.98414,5.5888 9.20506,5.5888 3.49869,0 4.12948,-0.5127 9.80618,-7.9699 z m 375.75987,-173.2649 c 2.52355,-3.6104 2.11945,-4.141 -4.03214,-5.2936 l -3.79519,-0.7111 2.24445,4.6197 c 1.23446,2.5409 2.49229,4.612 2.7952,4.6025 0.3029,-0.01 1.55736,-1.4574 2.78768,-3.2175 z m 55.86785,-26.79952 c 16.3886,-1.31452 38.2424,-5.70483 54.8952,-11.02818 23.6005,-7.5443 36.9361,-13.1022 102.8969,-42.88447 42.7104,-19.28438 79.4909,-33.20986 105.8504,-40.07603 6.915,-1.80123 8.5216,-2.5505 7.6698,-3.57693 -1.6793,-2.02341 -18.5017,-12.66226 -27.9171,-17.65543 -4.675,-2.47923 -16.9375,-8.03862 -27.25,-12.35418 -10.3125,-4.31557 -18.75,-8.15511 -18.75,-8.5323 0,-1.12484 44.5483,-18.45612 57.3675,-22.31851 15.2634,-4.59885 33.1404,-8.16049 47.533,-9.47004 6.2703,-0.57052 11.6274,-1.26421 11.9048,-1.54154 1.1275,-1.12755 -14.9978,-15.5476 -24.3234,-21.75112 -18.8221,-12.5208 -34.5194,-19.93171 -71.9819,-33.98379 -13.2,-4.95128 -24.8364,-9.32078 -25.8586,-9.71001 -1.2475,-0.47496 4.9445,-2.64903 18.8294,-6.61119 15.1728,-4.3297 21.3151,-6.53062 23.0404,-8.25584 2.6307,-2.63074 4.4888,-9.77753 4.4888,-17.26534 0,-4.10331 -0.3086,-4.95078 -1.8025,-4.95078 -3.4969,0 -30.2044,6.98787 -42.3744,11.08704 -14.1907,4.77975 -31.4417,12.22561 -51.0276,22.02439 -7.5375,3.77099 -16.8631,7.73163 -20.7236,8.80143 -32.1961,8.92198 -63.5686,-4.40378 -58.9337,-25.03257 3.17,-14.10871 17.6365,-22.13356 49.3981,-27.40206 37.4119,-6.20576 65.6754,-16.01619 90.4246,-31.38688 22.788,-14.15264 43.9299,-35.00923 58.8862,-58.09135 5.5378,-8.54654 18.1576,-31.90921 18.1474,-33.59567 0,-0.49738 -2.8406,-0.92231 -6.3058,-0.94429 -14.6287,-0.0928 -24.66,-9.07625 -24.6831,-22.1047 0,-1.72957 0.9052,-6.09364 2.0185,-9.69794 1.985,-6.42659 2.2063,-6.69018 11.4472,-13.63581 19.7798,-14.86681 29.108,-29.45696 31.7073,-49.59296 1.3768,-10.6659 1.064,-11.42863 -4.6871,-11.42863 -7.8727,0 -14.8337,-4.78812 -18.0089,-12.3874 -1.8879,-4.51835 -2.1731,-19.45386 -0.4336,-22.7042 0.6144,-1.14801 2.8833,-4.40955 5.042,-7.24785 2.1587,-2.8383 4.8631,-7.63555 6.0099,-10.66055 2.0528,-5.41467 4.4817,-17.75075 3.6574,-18.57508 -0.2321,-0.2321 -3.9852,1.61046 -8.3402,4.09458 -19.2914,11.00401 -35.7069,14.20998 -61.1938,11.9512 -6.9645,-0.61723 -8.1989,-0.98989 -7.7913,-2.35207 0.2665,-0.89025 2.3309,-8.36863 4.5876,-16.61863 2.2567,-8.25 6.2971,-22.65 8.9787,-32 6.5875,-22.96856 11.4663,-42.56413 14.1917,-57 1.9397,-10.27382 2.2613,-15.23659 2.2364,-34.5 -0.027,-21.10112 -0.1922,-23.10118 -2.6503,-32.16954 -3.6446,-13.44552 -8.6029,-24.37645 -16.305,-35.94591 L 1268.8917,198 h -4.3465 c -8.2892,0 -28.0239,4.05875 -41.2923,8.49243 -23.1002,7.71898 -47.8414,21.25032 -71.1117,38.89219 l -10.3589,7.8533 -6.4963,-1.75848 c -3.573,-0.96716 -8.3615,-3.17593 -10.6412,-4.90837 -4.38,-3.32864 -9.5822,-11.58063 -9.6214,-15.26205 -0.013,-1.20504 -0.4524,-2.45609 -0.9766,-2.78011 -0.5243,-0.32402 -7.2118,2.54611 -14.8611,6.37807 -31.4842,15.77214 -56.3527,33.25922 -83.083,58.42247 L 1003.7053,305 h -5.17451 c -7.58086,0 -14.2125,-2.62908 -19.192,-7.60858 l -4.2962,-4.2962 -10.18152,11.20239 c -23.87538,26.26931 -41.86031,53.64581 -59.91522,91.20239 -11.6972,24.33172 -25.37249,59.4741 -35.02257,90 -5.52728,17.48435 -11.6963,26.87502 -21.00082,31.96815 C 833.81596,525.73718 818,516.23639 818,498.89275 c 0,-7.28333 2.17635,-13.87941 10.52288,-31.89275 12.57858,-27.14688 18.31594,-49.62221 17.17252,-67.27104 -0.31879,-4.92058 -0.7823,-9.1492 -1.03003,-9.39692 -0.24772,-0.24772 -3.05253,0.30606 -6.23291,1.23062 -14.12163,4.10527 -27.85399,-2.62571 -33.03512,-16.19231 -1.58985,-4.16296 -1.5524,-4.83628 0.97904,-17.59946 11.3063,-57.00489 7.73162,-94.48176 -11.78114,-123.51307 -6.56654,-9.76978 -19.27378,-23.12013 -20.4075,-21.44033 -0.48906,0.72462 -1.16154,6.57462 -1.49441,13 -1.92377,37.13429 -13.67973,70.15224 -33.26473,93.42778 l -6.36997,7.57031 -8.77932,0.73513 c -15.94211,1.33491 -33.18846,-2.20023 -47.16448,-9.66774 -4.06185,-2.17028 -7.53642,-3.79472 -7.72127,-3.60987 -1.36206,1.36207 -5.66125,15.32063 -6.89144,22.37509 -3.12987,17.94803 -1.38052,34.25234 5.98797,55.80893 2.43596,7.12641 4.33471,13.03086 4.21946,13.121 -0.11525,0.0901 -3.92199,2.06229 -8.45941,4.38257 -10.58154,5.41102 -18.60945,6.89924 -28.27544,5.2417 -7.23563,-1.24077 -17.69861,-5.44548 -23.07254,-9.27206 -1.72092,-1.2254 -3.42469,-1.79483 -3.89951,-1.30329 -1.03324,1.06963 -7.999,24.23811 -11.38677,37.87296 -14.5287,58.47407 -15.7431,119.45589 -3.45511,173.5 16.89384,74.30124 58.63031,139.14261 122.67029,190.57937 22.13855,17.78163 56.01289,38.82462 83.07753,51.60835 11.46007,5.41307 13.28564,6.68095 23.88248,16.58668 44.97924,42.04578 81.04255,68.54082 119.25406,87.61374 30.23221,15.09013 55.79553,22.46792 86.45487,24.95162 8.5832,0.69532 13.6834,0.62224 26.1048,-0.37408 z M 778.31068,957.66764 c 15.25064,-10.94184 38.87803,-20.79748 57.46289,-23.96938 4.55046,-0.77663 8.52114,-1.65964 8.82373,-1.96223 1.22923,-1.22923 -2.77557,-6.58645 -8.75303,-11.70892 -3.48935,-2.99024 -10.28135,-8.99294 -15.09333,-13.33931 -4.81198,-4.34638 -9.33448,-7.67785 -10.05001,-7.40328 C 808.63366,900.07781 795.78317,915.69785 789.545,925 784.65168,932.29676 770,960.26101 770,962.30366 c 0,1.21281 0.71294,0.81511 8.31068,-4.63602 z M 671.94901,937.80095 c -6.27319,-11.28435 -19.75338,-33.6759 -24.31491,-40.38879 l -2.41182,-3.54932 -6.80558,8.55985 C 632.29596,910.12117 622,926.31407 622,928.24193 c 0,0.41694 1.0125,0.75921 2.25,0.76059 7.8364,0.009 36.64649,10.54183 47.73171,17.45084 3.01494,1.8791 5.65452,3.24375 5.86572,3.03254 0.2112,-0.2112 -2.44308,-5.46943 -5.89842,-11.68495 z m 63.44917,-4.83431 c 18.56222,-19.21307 27.98113,-33.89295 33.11642,-51.61377 1.98253,-6.84132 2.25184,-8.8859 1.25484,-9.52669 C 769.07125,871.37744 763.1,867.97765 756.5,864.2711 l -12,-6.7392 -12,0.042 c -14.03612,0.0491 -23.38161,1.4972 -36.5,5.65581 -11.52408,3.6532 -23.34904,9.42012 -22.71118,11.07601 0.69385,1.80125 19.82606,29.5158 30.16352,43.69431 16.70159,22.90731 19.04019,25.91756 20.16695,25.95892 0.6156,0.0226 5.91611,-4.92393 11.77889,-10.99228 z"
       id="path1" />
  </g>
</svg>
